<svg xmlns="http://www.w3.org/2000/svg" xmlns:xlink="http://www.w3.org/1999/xlink" width="200" zoomAndPan="magnify" viewBox="0 0 150 30.000001" height="40" preserveAspectRatio="xMidYMid meet" version="1.2"><defs><clipPath id="f429b2c485"><path d="M 26 6 L 147.578125 6 L 147.578125 28 L 26 28 Z M 26 6 "/></clipPath><clipPath id="fbe168928a"><rect x="0" width="122" y="0" height="22"/></clipPath><clipPath id="ca175abebe"><path d="M 2.417969 2 L 22.742188 2 L 22.742188 27.296875 L 2.417969 27.296875 Z M 2.417969 2 "/></clipPath></defs><g id="770a9fca9e"><g clip-rule="nonzero" clip-path="url(#f429b2c485)"><g transform="matrix(1,0,0,1,26,6)"><g clip-path="url(#fbe168928a)"><g style="fill:#06b6d4;fill-opacity:1;"><g transform="translate(0.308045, 16.161416)"><path style="stroke:none" d="M 8.953125 -7.125 C 8.953125 -6.519531 8.8125 -5.960938 8.53125 -5.453125 C 8.25 -4.953125 7.816406 -4.546875 7.234375 -4.234375 C 6.660156 -3.929688 5.941406 -3.78125 5.078125 -3.78125 L 3.484375 -3.78125 L 3.484375 0 L 0.921875 0 L 0.921875 -10.515625 L 5.078125 -10.515625 C 5.921875 -10.515625 6.628906 -10.367188 7.203125 -10.078125 C 7.785156 -9.796875 8.222656 -9.398438 8.515625 -8.890625 C 8.804688 -8.378906 8.953125 -7.789062 8.953125 -7.125 Z M 4.890625 -5.8125 C 5.378906 -5.8125 5.742188 -5.925781 5.984375 -6.15625 C 6.222656 -6.382812 6.34375 -6.707031 6.34375 -7.125 C 6.34375 -7.550781 6.222656 -7.878906 5.984375 -8.109375 C 5.742188 -8.335938 5.378906 -8.453125 4.890625 -8.453125 L 3.484375 -8.453125 L 3.484375 -5.8125 Z M 4.890625 -5.8125 "/></g></g><g style="fill:#06b6d4;fill-opacity:1;"><g transform="translate(9.659424, 16.161416)"><path style="stroke:none" d="M 6.03125 -8.453125 C 7 -8.453125 7.773438 -8.132812 8.359375 -7.5 C 8.953125 -6.863281 9.25 -5.992188 9.25 -4.890625 L 9.25 0 L 6.703125 0 L 6.703125 -4.546875 C 6.703125 -5.097656 6.554688 -5.53125 6.265625 -5.84375 C 5.972656 -6.15625 5.582031 -6.3125 5.09375 -6.3125 C 4.601562 -6.3125 4.210938 -6.15625 3.921875 -5.84375 C 3.628906 -5.53125 3.484375 -5.097656 3.484375 -4.546875 L 3.484375 0 L 0.921875 0 L 0.921875 -8.359375 L 3.484375 -8.359375 L 3.484375 -7.25 C 3.742188 -7.625 4.09375 -7.914062 4.53125 -8.125 C 4.976562 -8.34375 5.476562 -8.453125 6.03125 -8.453125 Z M 6.03125 -8.453125 "/></g></g><g style="fill:#06b6d4;fill-opacity:1;"><g transform="translate(19.76011, 16.161416)"><path style="stroke:none" d="M 4.109375 -8.484375 C 4.691406 -8.484375 5.207031 -8.363281 5.65625 -8.125 C 6.101562 -7.882812 6.445312 -7.566406 6.6875 -7.171875 L 6.6875 -8.359375 L 9.25 -8.359375 L 9.25 -0.015625 C 9.25 0.753906 9.09375 1.453125 8.78125 2.078125 C 8.476562 2.703125 8.015625 3.195312 7.390625 3.5625 C 6.765625 3.9375 5.988281 4.125 5.0625 4.125 C 3.820312 4.125 2.816406 3.832031 2.046875 3.25 C 1.285156 2.664062 0.847656 1.875 0.734375 0.875 L 3.265625 0.875 C 3.347656 1.1875 3.535156 1.4375 3.828125 1.625 C 4.128906 1.8125 4.5 1.90625 4.9375 1.90625 C 5.46875 1.90625 5.890625 1.75 6.203125 1.4375 C 6.523438 1.132812 6.6875 0.648438 6.6875 -0.015625 L 6.6875 -1.203125 C 6.4375 -0.804688 6.085938 -0.484375 5.640625 -0.234375 C 5.203125 0.00390625 4.691406 0.125 4.109375 0.125 C 3.421875 0.125 2.796875 -0.0507812 2.234375 -0.40625 C 1.671875 -0.757812 1.226562 -1.265625 0.90625 -1.921875 C 0.582031 -2.578125 0.421875 -3.335938 0.421875 -4.203125 C 0.421875 -5.054688 0.582031 -5.804688 0.90625 -6.453125 C 1.226562 -7.109375 1.671875 -7.609375 2.234375 -7.953125 C 2.796875 -8.304688 3.421875 -8.484375 4.109375 -8.484375 Z M 6.6875 -4.1875 C 6.6875 -4.820312 6.507812 -5.320312 6.15625 -5.6875 C 5.800781 -6.0625 5.367188 -6.25 4.859375 -6.25 C 4.347656 -6.25 3.914062 -6.066406 3.5625 -5.703125 C 3.207031 -5.335938 3.03125 -4.835938 3.03125 -4.203125 C 3.03125 -3.554688 3.207031 -3.046875 3.5625 -2.671875 C 3.914062 -2.296875 4.347656 -2.109375 4.859375 -2.109375 C 5.367188 -2.109375 5.800781 -2.289062 6.15625 -2.65625 C 6.507812 -3.03125 6.6875 -3.539062 6.6875 -4.1875 Z M 6.6875 -4.1875 "/></g></g><g style="fill:#06b6d4;fill-opacity:1;"><g transform="translate(29.935728, 16.161416)"><path style="stroke:none" d="M 5.59375 -2.171875 L 5.59375 0 L 4.28125 0 C 3.351562 0 2.628906 -0.222656 2.109375 -0.671875 C 1.585938 -1.128906 1.328125 -1.875 1.328125 -2.90625 L 1.328125 -6.234375 L 0.3125 -6.234375 L 0.3125 -8.359375 L 1.328125 -8.359375 L 1.328125 -10.40625 L 3.890625 -10.40625 L 3.890625 -8.359375 L 5.578125 -8.359375 L 5.578125 -6.234375 L 3.890625 -6.234375 L 3.890625 -2.875 C 3.890625 -2.625 3.945312 -2.441406 4.0625 -2.328125 C 4.1875 -2.222656 4.390625 -2.171875 4.671875 -2.171875 Z M 5.59375 -2.171875 "/></g></g><g style="fill:#06b6d4;fill-opacity:1;"><g transform="translate(36.020118, 16.161416)"><path style="stroke:none" d="M 9.1875 -8.359375 L 9.1875 0 L 6.625 0 L 6.625 -1.140625 C 6.363281 -0.765625 6.007812 -0.460938 5.5625 -0.234375 C 5.125 -0.015625 4.632812 0.09375 4.09375 0.09375 C 3.445312 0.09375 2.878906 -0.046875 2.390625 -0.328125 C 1.898438 -0.617188 1.519531 -1.03125 1.25 -1.5625 C 0.988281 -2.101562 0.859375 -2.738281 0.859375 -3.46875 L 0.859375 -8.359375 L 3.40625 -8.359375 L 3.40625 -3.828125 C 3.40625 -3.265625 3.546875 -2.828125 3.828125 -2.515625 C 4.117188 -2.203125 4.507812 -2.046875 5 -2.046875 C 5.5 -2.046875 5.894531 -2.203125 6.1875 -2.515625 C 6.476562 -2.828125 6.625 -3.265625 6.625 -3.828125 L 6.625 -8.359375 Z M 9.1875 -8.359375 "/></g></g><g style="fill:#06b6d4;fill-opacity:1;"><g transform="translate(46.120804, 16.161416)"><path style="stroke:none" d="M 3.484375 -7.171875 C 3.722656 -7.566406 4.066406 -7.882812 4.515625 -8.125 C 4.972656 -8.363281 5.488281 -8.484375 6.0625 -8.484375 C 6.757812 -8.484375 7.382812 -8.304688 7.9375 -7.953125 C 8.5 -7.609375 8.941406 -7.109375 9.265625 -6.453125 C 9.585938 -5.804688 9.75 -5.054688 9.75 -4.203125 C 9.75 -3.335938 9.585938 -2.578125 9.265625 -1.921875 C 8.941406 -1.265625 8.5 -0.757812 7.9375 -0.40625 C 7.382812 -0.0507812 6.757812 0.125 6.0625 0.125 C 5.476562 0.125 4.960938 0.0078125 4.515625 -0.21875 C 4.078125 -0.457031 3.734375 -0.773438 3.484375 -1.171875 L 3.484375 0 L 0.921875 0 L 0.921875 -11.09375 L 3.484375 -11.09375 Z M 7.140625 -4.203125 C 7.140625 -4.835938 6.960938 -5.335938 6.609375 -5.703125 C 6.253906 -6.066406 5.816406 -6.25 5.296875 -6.25 C 4.796875 -6.25 4.363281 -6.0625 4 -5.6875 C 3.644531 -5.320312 3.46875 -4.820312 3.46875 -4.1875 C 3.46875 -3.539062 3.644531 -3.03125 4 -2.65625 C 4.363281 -2.289062 4.796875 -2.109375 5.296875 -2.109375 C 5.804688 -2.109375 6.238281 -2.296875 6.59375 -2.671875 C 6.957031 -3.046875 7.140625 -3.554688 7.140625 -4.203125 Z M 7.140625 -4.203125 "/></g></g><g style="fill:#06b6d4;fill-opacity:1;"><g transform="translate(56.296422, 16.161416)"><path style="stroke:none" d="M 8.8125 -4.3125 C 8.8125 -4.070312 8.796875 -3.820312 8.765625 -3.5625 L 2.96875 -3.5625 C 3.007812 -3.039062 3.175781 -2.644531 3.46875 -2.375 C 3.757812 -2.101562 4.125 -1.96875 4.5625 -1.96875 C 5.195312 -1.96875 5.640625 -2.234375 5.890625 -2.765625 L 8.609375 -2.765625 C 8.472656 -2.222656 8.222656 -1.726562 7.859375 -1.28125 C 7.492188 -0.84375 7.035156 -0.5 6.484375 -0.25 C 5.941406 0 5.328125 0.125 4.640625 0.125 C 3.828125 0.125 3.097656 -0.046875 2.453125 -0.390625 C 1.816406 -0.742188 1.316406 -1.242188 0.953125 -1.890625 C 0.597656 -2.546875 0.421875 -3.3125 0.421875 -4.1875 C 0.421875 -5.050781 0.597656 -5.804688 0.953125 -6.453125 C 1.304688 -7.109375 1.800781 -7.609375 2.4375 -7.953125 C 3.082031 -8.304688 3.816406 -8.484375 4.640625 -8.484375 C 5.453125 -8.484375 6.171875 -8.3125 6.796875 -7.96875 C 7.429688 -7.632812 7.925781 -7.148438 8.28125 -6.515625 C 8.632812 -5.890625 8.8125 -5.15625 8.8125 -4.3125 Z M 6.1875 -4.984375 C 6.1875 -5.429688 6.035156 -5.78125 5.734375 -6.03125 C 5.441406 -6.289062 5.066406 -6.421875 4.609375 -6.421875 C 4.179688 -6.421875 3.820312 -6.296875 3.53125 -6.046875 C 3.238281 -5.796875 3.054688 -5.441406 2.984375 -4.984375 Z M 6.1875 -4.984375 "/></g></g><g style="fill:#06b6d4;fill-opacity:1;"><g transform="translate(65.527911, 16.161416)"><path style="stroke:none" d="M 3.484375 -6.96875 C 3.785156 -7.425781 4.160156 -7.785156 4.609375 -8.046875 C 5.066406 -8.316406 5.566406 -8.453125 6.109375 -8.453125 L 6.109375 -5.734375 L 5.40625 -5.734375 C 4.769531 -5.734375 4.289062 -5.597656 3.96875 -5.328125 C 3.644531 -5.054688 3.484375 -4.570312 3.484375 -3.875 L 3.484375 0 L 0.921875 0 L 0.921875 -8.359375 L 3.484375 -8.359375 Z M 3.484375 -6.96875 "/></g></g><g style="fill:#06b6d4;fill-opacity:1;"><g transform="translate(71.941999, 16.161416)"><path style="stroke:none" d="M 12.84375 -10.515625 L 12.84375 0 L 10.28125 0 L 10.28125 -6.3125 L 7.921875 0 L 5.859375 0 L 3.484375 -6.328125 L 3.484375 0 L 0.921875 0 L 0.921875 -10.515625 L 3.953125 -10.515625 L 6.90625 -3.234375 L 9.828125 -10.515625 Z M 12.84375 -10.515625 "/></g></g><g style="fill:#06b6d4;fill-opacity:1;"><g transform="translate(85.699314, 16.161416)"><path style="stroke:none" d="M 0.421875 -4.203125 C 0.421875 -5.054688 0.582031 -5.804688 0.90625 -6.453125 C 1.226562 -7.109375 1.671875 -7.609375 2.234375 -7.953125 C 2.796875 -8.304688 3.421875 -8.484375 4.109375 -8.484375 C 4.691406 -8.484375 5.207031 -8.363281 5.65625 -8.125 C 6.101562 -7.882812 6.445312 -7.566406 6.6875 -7.171875 L 6.6875 -8.359375 L 9.25 -8.359375 L 9.25 0 L 6.6875 0 L 6.6875 -1.1875 C 6.4375 -0.789062 6.085938 -0.472656 5.640625 -0.234375 C 5.191406 0.00390625 4.675781 0.125 4.09375 0.125 C 3.414062 0.125 2.796875 -0.0507812 2.234375 -0.40625 C 1.671875 -0.757812 1.226562 -1.265625 0.90625 -1.921875 C 0.582031 -2.578125 0.421875 -3.335938 0.421875 -4.203125 Z M 6.6875 -4.1875 C 6.6875 -4.820312 6.507812 -5.320312 6.15625 -5.6875 C 5.800781 -6.0625 5.367188 -6.25 4.859375 -6.25 C 4.347656 -6.25 3.914062 -6.066406 3.5625 -5.703125 C 3.207031 -5.335938 3.03125 -4.835938 3.03125 -4.203125 C 3.03125 -3.554688 3.207031 -3.046875 3.5625 -2.671875 C 3.914062 -2.296875 4.347656 -2.109375 4.859375 -2.109375 C 5.367188 -2.109375 5.800781 -2.289062 6.15625 -2.65625 C 6.507812 -3.03125 6.6875 -3.539062 6.6875 -4.1875 Z M 6.6875 -4.1875 "/></g></g><g style="fill:#06b6d4;fill-opacity:1;"><g transform="translate(95.874932, 16.161416)"><path style="stroke:none" d="M 6.03125 0 L 3.484375 -3.5 L 3.484375 0 L 0.921875 0 L 0.921875 -11.09375 L 3.484375 -11.09375 L 3.484375 -4.953125 L 6.03125 -8.359375 L 9.1875 -8.359375 L 5.703125 -4.171875 L 9.21875 0 Z M 6.03125 0 "/></g></g><g style="fill:#06b6d4;fill-opacity:1;"><g transform="translate(105.136387, 16.161416)"><path style="stroke:none" d="M 8.8125 -4.3125 C 8.8125 -4.070312 8.796875 -3.820312 8.765625 -3.5625 L 2.96875 -3.5625 C 3.007812 -3.039062 3.175781 -2.644531 3.46875 -2.375 C 3.757812 -2.101562 4.125 -1.96875 4.5625 -1.96875 C 5.195312 -1.96875 5.640625 -2.234375 5.890625 -2.765625 L 8.609375 -2.765625 C 8.472656 -2.222656 8.222656 -1.726562 7.859375 -1.28125 C 7.492188 -0.84375 7.035156 -0.5 6.484375 -0.25 C 5.941406 0 5.328125 0.125 4.640625 0.125 C 3.828125 0.125 3.097656 -0.046875 2.453125 -0.390625 C 1.816406 -0.742188 1.316406 -1.242188 0.953125 -1.890625 C 0.597656 -2.546875 0.421875 -3.3125 0.421875 -4.1875 C 0.421875 -5.050781 0.597656 -5.804688 0.953125 -6.453125 C 1.304688 -7.109375 1.800781 -7.609375 2.4375 -7.953125 C 3.082031 -8.304688 3.816406 -8.484375 4.640625 -8.484375 C 5.453125 -8.484375 6.171875 -8.3125 6.796875 -7.96875 C 7.429688 -7.632812 7.925781 -7.148438 8.28125 -6.515625 C 8.632812 -5.890625 8.8125 -5.15625 8.8125 -4.3125 Z M 6.1875 -4.984375 C 6.1875 -5.429688 6.035156 -5.78125 5.734375 -6.03125 C 5.441406 -6.289062 5.066406 -6.421875 4.609375 -6.421875 C 4.179688 -6.421875 3.820312 -6.296875 3.53125 -6.046875 C 3.238281 -5.796875 3.054688 -5.441406 2.984375 -4.984375 Z M 6.1875 -4.984375 "/></g></g><g style="fill:#06b6d4;fill-opacity:1;"><g transform="translate(114.367876, 16.161416)"><path style="stroke:none" d="M 3.484375 -6.96875 C 3.785156 -7.425781 4.160156 -7.785156 4.609375 -8.046875 C 5.066406 -8.316406 5.566406 -8.453125 6.109375 -8.453125 L 6.109375 -5.734375 L 5.40625 -5.734375 C 4.769531 -5.734375 4.289062 -5.597656 3.96875 -5.328125 C 3.644531 -5.054688 3.484375 -4.570312 3.484375 -3.875 L 3.484375 0 L 0.921875 0 L 0.921875 -8.359375 L 3.484375 -8.359375 Z M 3.484375 -6.96875 "/></g></g></g></g></g><path style=" stroke:none;fill-rule:nonzero;fill:#6ecfe0;fill-opacity:1;" d="M 17.871094 10.90625 C 15.617188 7.183594 12.398438 4.429688 10.222656 3.339844 C 8.234375 2.347656 4.496094 1.941406 4.222656 5.050781 C 3.984375 7.746094 6.109375 10.605469 7.617188 12.609375 C 5.476562 10.9375 3.566406 11.035156 3.261719 12.207031 C 2.429688 15.398438 6.082031 17.550781 8.316406 18.898438 C 7.542969 18.8125 7.191406 18.726562 6.410156 18.921875 C 5.414062 19.175781 4.707031 20.226562 5.0625 21.261719 C 5.808594 23.460938 8.53125 23.074219 10.335938 23.148438 C 9.890625 23.261719 9.464844 23.519531 9.3125 23.984375 C 8.730469 25.746094 11.6875 26.601562 12.898438 26.753906 C 15.605469 27.089844 21.191406 26.433594 21.691406 22.941406 C 22.347656 20.621094 20.429688 15.140625 17.871094 10.90625 "/><g clip-rule="nonzero" clip-path="url(#ca175abebe)"><path style=" stroke:none;fill-rule:nonzero;fill:#06b6d4;fill-opacity:1;" d="M 7.28125 19.019531 C 7.039062 19.019531 6.796875 19.046875 6.464844 19.132812 C 6.007812 19.25 5.601562 19.566406 5.375 19.980469 C 5.167969 20.363281 5.128906 20.792969 5.265625 21.195312 C 5.847656 22.910156 7.769531 22.914062 9.464844 22.917969 C 9.773438 22.917969 10.066406 22.917969 10.34375 22.933594 L 11.804688 22.988281 L 10.386719 23.355469 C 10.125 23.425781 9.664062 23.605469 9.515625 24.050781 C 9.402344 24.398438 9.4375 24.710938 9.628906 25.007812 C 10.1875 25.894531 11.949219 26.417969 12.925781 26.542969 C 13.332031 26.589844 13.792969 26.617188 14.285156 26.617188 C 17.140625 26.617188 21.078125 25.691406 21.476562 22.910156 L 21.476562 22.898438 L 21.484375 22.882812 C 21.78125 21.835938 21.53125 19.996094 20.78125 17.710938 C 20.066406 15.53125 18.941406 13.09375 17.6875 11.019531 C 15.464844 7.347656 12.289062 4.613281 10.125 3.535156 C 8.765625 2.859375 6.753906 2.527344 5.535156 3.207031 C 4.882812 3.574219 4.515625 4.199219 4.4375 5.066406 C 4.203125 7.714844 6.363281 10.582031 7.792969 12.480469 L 8.773438 13.785156 L 7.484375 12.78125 C 5.972656 11.601562 4.738281 11.414062 4.082031 11.636719 C 3.761719 11.746094 3.550781 11.960938 3.472656 12.261719 C 3.128906 13.566406 3.546875 14.804688 4.746094 16.042969 C 5.789062 17.121094 7.195312 17.96875 8.328125 18.652344 L 9.269531 19.222656 L 8.289062 19.113281 C 8.191406 19.101562 8.097656 19.089844 8.007812 19.078125 C 7.726562 19.046875 7.507812 19.019531 7.28125 19.019531 Z M 14.273438 27.046875 C 13.738281 27.046875 13.261719 27.015625 12.871094 26.96875 C 12.417969 26.910156 11.6875 26.75 10.988281 26.472656 C 10.148438 26.136719 9.570312 25.722656 9.265625 25.242188 C 9.003906 24.828125 8.953125 24.382812 9.105469 23.917969 C 9.175781 23.699219 9.304688 23.507812 9.476562 23.351562 C 9.472656 23.351562 9.464844 23.351562 9.460938 23.351562 C 8.605469 23.347656 7.632812 23.347656 6.796875 23.105469 C 5.796875 22.8125 5.164062 22.234375 4.855469 21.335938 C 4.679688 20.816406 4.730469 20.261719 4.996094 19.773438 C 5.28125 19.246094 5.777344 18.859375 6.359375 18.714844 C 6.78125 18.605469 7.089844 18.578125 7.390625 18.589844 C 6.398438 17.972656 5.304688 17.242188 4.4375 16.34375 C 3.839844 15.726562 3.414062 15.09375 3.171875 14.453125 C 2.890625 13.707031 2.851562 12.929688 3.054688 12.152344 C 3.167969 11.710938 3.484375 11.382812 3.945312 11.226562 C 4.40625 11.070312 4.992188 11.09375 5.640625 11.289062 C 5.984375 11.390625 6.34375 11.546875 6.707031 11.746094 C 5.339844 9.863281 3.800781 7.398438 4.007812 5.03125 C 4.097656 4.011719 4.539062 3.273438 5.324219 2.832031 C 5.976562 2.46875 6.847656 2.332031 7.847656 2.4375 C 8.6875 2.523438 9.585938 2.785156 10.316406 3.148438 C 12.539062 4.257812 15.789062 7.050781 18.054688 10.796875 C 20.496094 14.832031 22.597656 20.484375 21.902344 22.984375 C 21.664062 24.597656 20.378906 25.808594 18.1875 26.488281 C 16.859375 26.902344 15.4375 27.046875 14.273438 27.046875 "/></g></g></svg>